<svg xmlns="http://www.w3.org/2000/svg" width="38" height="38" viewBox="0 0 38 38">
  <g fill="#4A4A4A" fill-rule="evenodd">
    <path fill-rule="nonzero" d="M19,38 C8.50658975,38 0,29.4934102 0,19 C0,8.50658975 8.50658975,0 19,0 C29.4934102,0 38,8.50658975 38,19 C38,29.4934102 29.4934102,38 19,38 Z M19,34.4559585 C27.5360902,34.4559585 34.4559585,27.5360902 34.4559585,19 C34.4559585,10.4639098 27.5360902,3.54404145 19,3.54404145 C10.4639098,3.54404145 3.54404145,10.4639098 3.54404145,19 C3.54404145,27.5360902 10.4639098,34.4559585 19,34.4559585 Z"/>
    <path d="M20,15.566705 L23.2785179,14.6882288 C24.078717,14.473816 24.9012225,14.9486898 25.1156352,15.7488889 C25.3300479,16.5490881 24.8551742,17.3715935 24.054975,17.5860062 L19.2253459,18.8801015 C19.1392931,18.9031592 19.0529824,18.9182456 18.9671977,18.9258133 C18.8201667,18.9739612 18.6631242,19 18.5,19 C17.6715729,19 17,18.3284271 17,17.5 L17,7.5 C17,6.67157288 17.6715729,6 18.5,6 C19.3284271,6 20,6.67157288 20,7.5 L20,15.566705 Z"/>
  </g>
</svg>
