<svg xmlns="http://www.w3.org/2000/svg" width="20" height="22" viewBox="0 0 20 22">
  <g fill="#1A1A1A">
    <path d="M1,5.5 C0.723857625,5.5 0.5,5.27614237 0.5,5 C0.5,4.72385763 0.723857625,4.5 1,4.5 L19,4.5 C19.2761424,4.5 19.5,4.72385763 19.5,5 C19.5,5.27614237 19.2761424,5.5 19,5.5 L1,5.5 Z"/>
    <path d="M16.5,5 C16.5,4.72385763 16.7238576,4.5 17,4.5 C17.2761424,4.5 17.5,4.72385763 17.5,5 L17.5,19 C17.5,20.3807119 16.3807119,21.5 15,21.5 L5,21.5 C3.61928813,21.5 2.5,20.3807119 2.5,19 L2.5,5 C2.5,4.72385763 2.72385763,4.5 3,4.5 C3.27614237,4.5 3.5,4.72385763 3.5,5 L3.5,19 C3.5,19.8284271 4.17157288,20.5 5,20.5 L15,20.5 C15.8284271,20.5 16.5,19.8284271 16.5,19 L16.5,5 Z M6.5,5 C6.5,5.27614237 6.27614237,5.5 6,5.5 C5.72385763,5.5 5.5,5.27614237 5.5,5 L5.5,3 C5.5,1.61928813 6.61928813,0.5 8,0.5 L12,0.5 C13.3807119,0.5 14.5,1.61928813 14.5,3 L14.5,5 C14.5,5.27614237 14.2761424,5.5 14,5.5 C13.7238576,5.5 13.5,5.27614237 13.5,5 L13.5,3 C13.5,2.17157288 12.8284271,1.5 12,1.5 L8,1.5 C7.17157288,1.5 6.5,2.17157288 6.5,3 L6.5,5 Z"/>
    <path d="M7.5 10C7.5 9.72385763 7.72385763 9.5 8 9.5 8.27614237 9.5 8.5 9.72385763 8.5 10L8.5 16C8.5 16.2761424 8.27614237 16.5 8 16.5 7.72385763 16.5 7.5 16.2761424 7.5 16L7.5 10zM11.5 10C11.5 9.72385763 11.7238576 9.5 12 9.5 12.2761424 9.5 12.5 9.72385763 12.5 10L12.5 16C12.5 16.2761424 12.2761424 16.5 12 16.5 11.7238576 16.5 11.5 16.2761424 11.5 16L11.5 10z"/>
  </g>
</svg>
