<svg xmlns="http://www.w3.org/2000/svg" width="20" height="22" viewBox="0 0 20 22">
  <g fill="#FFF" transform="translate(1 1)">
    <path d="M0,4.75 C-0.414213562,4.75 -0.75,4.41421356 -0.75,4 C-0.75,3.58578644 -0.414213562,3.25 0,3.25 L18,3.25 C18.4142136,3.25 18.75,3.58578644 18.75,4 C18.75,4.41421356 18.4142136,4.75 18,4.75 L0,4.75 Z"/>
    <path d="M15.25,4 C15.25,3.58578644 15.5857864,3.25 16,3.25 C16.4142136,3.25 16.75,3.58578644 16.75,4 L16.75,18 C16.75,19.5187831 15.5187831,20.75 14,20.75 L4,20.75 C2.48121694,20.75 1.25,19.5187831 1.25,18 L1.25,4 C1.25,3.58578644 1.58578644,3.25 2,3.25 C2.41421356,3.25 2.75,3.58578644 2.75,4 L2.75,18 C2.75,18.6903559 3.30964406,19.25 4,19.25 L14,19.25 C14.6903559,19.25 15.25,18.6903559 15.25,18 L15.25,4 Z M5.75,4 C5.75,4.41421356 5.41421356,4.75 5,4.75 C4.58578644,4.75 4.25,4.41421356 4.25,4 L4.25,2 C4.25,0.481216938 5.48121694,-0.75 7,-0.75 L11,-0.75 C12.5187831,-0.75 13.75,0.481216938 13.75,2 L13.75,4 C13.75,4.41421356 13.4142136,4.75 13,4.75 C12.5857864,4.75 12.25,4.41421356 12.25,4 L12.25,2 C12.25,1.30964406 11.6903559,0.75 11,0.75 L7,0.75 C6.30964406,0.75 5.75,1.30964406 5.75,2 L5.75,4 Z"/>
    <path d="M6.25 9C6.25 8.58578644 6.58578644 8.25 7 8.25 7.41421356 8.25 7.75 8.58578644 7.75 9L7.75 15C7.75 15.4142136 7.41421356 15.75 7 15.75 6.58578644 15.75 6.25 15.4142136 6.25 15L6.25 9zM10.25 9C10.25 8.58578644 10.5857864 8.25 11 8.25 11.4142136 8.25 11.75 8.58578644 11.75 9L11.75 15C11.75 15.4142136 11.4142136 15.75 11 15.75 10.5857864 15.75 10.25 15.4142136 10.25 15L10.25 9z"/>
  </g>
</svg>
