<svg xmlns="http://www.w3.org/2000/svg" width="20" height="20" viewBox="0 0 20 20">
  <g fill="#FFF" transform="translate(1 1)">
    <path d="M17.25,12 C17.25,11.5857864 17.5857864,11.25 18,11.25 C18.4142136,11.25 18.75,11.5857864 18.75,12 L18.75,16 C18.75,17.5187831 17.5187831,18.75 16,18.75 L2,18.75 C0.481216938,18.75 -0.75,17.5187831 -0.75,16 L-0.75,12 C-0.75,11.5857864 -0.414213562,11.25 0,11.25 C0.414213562,11.25 0.75,11.5857864 0.75,12 L0.75,16 C0.75,16.6903559 1.30964406,17.25 2,17.25 L16,17.25 C16.6903559,17.25 17.25,16.6903559 17.25,16 L17.25,12 Z"/>
    <path d="M13.4696699,6.46966991 C13.7625631,6.1767767 14.2374369,6.1767767 14.5303301,6.46966991 C14.8232233,6.76256313 14.8232233,7.23743687 14.5303301,7.53033009 L9.53033009,12.5303301 C9.23743687,12.8232233 8.76256313,12.8232233 8.46966991,12.5303301 L3.46966991,7.53033009 C3.1767767,7.23743687 3.1767767,6.76256313 3.46966991,6.46966991 C3.76256313,6.1767767 4.23743687,6.1767767 4.53033009,6.46966991 L9,10.9393398 L13.4696699,6.46966991 Z"/>
    <path d="M9.75,12 C9.75,12.4142136 9.41421356,12.75 9,12.75 C8.58578644,12.75 8.25,12.4142136 8.25,12 L8.25,0 C8.25,-0.414213562 8.58578644,-0.75 9,-0.75 C9.41421356,-0.75 9.75,-0.414213562 9.75,0 L9.75,12 Z"/>
  </g>
</svg>
