<svg xmlns="http://www.w3.org/2000/svg" width="20" height="20" viewBox="0 0 20 20">
  <path fill="#FFF" d="M319,10 C319,8.18666 319.44668,6.51334 320.34,4.98 C321.23334,3.44666 322.44668,2.23334 323.98,1.34 C325.51334,0.44666 327.18668,0 329,0 C330.81334,0 332.48668,0.44666 334.02,1.34 C335.55334,2.23334 336.76668,3.44666 337.66,4.98 C338.55334,6.51334 339,8.18666 339,10 C339,11.81334 338.55334,13.48666 337.66,15.02 C336.76668,16.55334 335.55334,17.76666 334.02,18.66 C332.48668,19.55334 330.81334,20 329,20 C327.18668,20 325.51334,19.55334 323.98,18.66 C322.44668,17.76666 321.23334,16.55334 320.34,15.02 C319.44668,13.48666 319,11.81334 319,10 Z M320.66,10 C320.66,12.08 321.36,13.91334 322.76,15.5 C323.4,14.24666 324.41334,13.05334 325.8,11.92 C327.18668,10.78666 328.54,10.07334 329.86,9.78 C329.66,9.31334 329.46668,8.89334 329.28,8.52 C326.98668,9.25334 324.50668,9.62 321.84,9.62 C321.32,9.62 320.93334,9.61334 320.68,9.6 C320.68,9.65334 320.67668,9.72 320.67,9.8 C320.66334,9.88 320.66,9.94666 320.66,10 Z M320.92,7.94 C321.21334,7.96666 321.64668,7.98 322.22,7.98 C324.44668,7.98 326.56,7.68 328.56,7.08 C327.54668,5.28 326.43334,3.78 325.22,2.58 C324.16668,3.11334 323.26334,3.85334 322.51,4.8 C321.75668,5.74666 321.22668,6.79334 320.92,7.94 Z M323.9,16.58 C325.40668,17.75334 327.10668,18.34 329,18.34 C329.98668,18.34 330.96668,18.15334 331.94,17.78 C331.67334,15.5 331.15334,13.29334 330.38,11.16 C329.15334,11.42666 327.91668,12.1 326.67,13.18 C325.42334,14.26 324.5,15.39334 323.9,16.58 Z M326.96,1.94 C328.13334,3.15334 329.22,4.66666 330.22,6.48 C332.03334,5.72 333.4,4.75334 334.32,3.58 C332.77334,2.3 331,1.66 329,1.66 C328.32,1.66 327.64,1.75334 326.96,1.94 Z M330.94,7.9 C331.14,8.32666 331.36668,8.86666 331.62,9.52 C332.60668,9.42666 333.68,9.38 334.84,9.38 C335.66668,9.38 336.48668,9.4 337.3,9.44 C337.19334,7.62666 336.54,6.01334 335.34,4.6 C334.47334,5.89334 333.00668,6.99334 330.94,7.9 Z M332.12,10.92 C332.8,12.89334 333.26,14.92 333.5,17 C334.55334,16.32 335.41334,15.44666 336.08,14.38 C336.74668,13.31334 337.14668,12.16 337.28,10.92 C336.30668,10.85334 335.42,10.82 334.62,10.82 C333.88668,10.82 333.05334,10.85334 332.12,10.92 Z" transform="translate(-319)"/>
</svg>
