<svg xmlns="http://www.w3.org/2000/svg" width="37" height="37" viewBox="0 0 37 37">
  <g fill="#0F5E73" fill-rule="evenodd" transform="rotate(45 18.592 38.056)">
    <path d="M8.35962163 8.29952916L8.35962163 38.1786463C8.35962163 38.7139314 8.28147924 39.2463495 8.1276662 39.7590597L5.41886042 48.7884123C5.26016257 49.3174051 4.7026791 49.6175885 4.17368625 49.4588907 3.85170646 49.3622967 3.59980179 49.1103921 3.50320785 48.7884123L.794402078 39.7590597C.640589036 39.2463495.562446647 38.7139314.562446647 38.1786463L.562446647 8.29952916 8.35962163 8.29952916zM8.35962163 7L.562446647 7 .562446647 3.89858749C.562446647 1.74545707 2.30790372 4.4408921e-16 4.46103414 0 6.61416455 0 8.35962163 1.74545707 8.35962163 3.89858749L8.35962163 7z"/>
  </g>
</svg>
