<svg xmlns="http://www.w3.org/2000/svg" width="18" height="22" viewBox="0 0 18 22">
  <g fill="#1A1A1A" transform="translate(1 1)">
    <path d="M9,-0.5 C9.13260824,-0.5 9.2597852,-0.44732158 9.35355339,-0.353553391 L16.3535534,6.64644661 C16.4473216,6.7402148 16.5,6.86739176 16.5,7 L16.5,18 C16.5,19.3807119 15.3807119,20.5 14,20.5 L2,20.5 C0.619288125,20.5 -0.5,19.3807119 -0.5,18 L-0.5,2 C-0.5,0.619288125 0.619288125,-0.5 2,-0.5 L9,-0.5 Z M8.79289322,0.5 L2,0.5 C1.17157288,0.5 0.5,1.17157288 0.5,2 L0.5,18 C0.5,18.8284271 1.17157288,19.5 2,19.5 L14,19.5 C14.8284271,19.5 15.5,18.8284271 15.5,18 L15.5,7.20710678 L8.79289322,0.5 Z"/>
    <path d="M9.5,6.5 L16,6.5 C16.2761424,6.5 16.5,6.72385763 16.5,7 C16.5,7.27614237 16.2761424,7.5 16,7.5 L9,7.5 C8.72385763,7.5 8.5,7.27614237 8.5,7 L8.5,0 C8.5,-0.276142375 8.72385763,-0.5 9,-0.5 C9.27614237,-0.5 9.5,-0.276142375 9.5,0 L9.5,6.5 Z"/>
  </g>
</svg>
