<svg xmlns="http://www.w3.org/2000/svg" width="22" height="20" viewBox="0 0 22 20">
  <path fill="#1A1A1A" d="M6.73240812,0.5 L2,0.5 C1.17157288,0.5 0.5,1.17157288 0.5,2 L0.5,16 C0.5,16.8284271 1.17157288,17.5 2,17.5 L18,17.5 C18.8284271,17.5 19.5,16.8284271 19.5,16 L19.5,5 C19.5,4.17157288 18.8284271,3.5 18,3.5 L9,3.5 C8.83282341,3.5 8.67670774,3.41644943 8.58397485,3.2773501 L6.73240812,0.5 Z M9.26759188,2.5 L18,2.5 C19.3807119,2.5 20.5,3.61928813 20.5,5 L20.5,16 C20.5,17.3807119 19.3807119,18.5 18,18.5 L2,18.5 C0.619288125,18.5 -0.5,17.3807119 -0.5,16 L-0.5,2 C-0.5,0.619288125 0.619288125,-0.5 2,-0.5 L7,-0.5 C7.16717659,-0.5 7.32329226,-0.416449432 7.41602515,-0.277350098 L9.26759188,2.5 Z" transform="translate(1 1)"/>
</svg>
