<svg xmlns="http://www.w3.org/2000/svg" width="32" height="20" viewBox="0 0 32 20">
  <g fill="#FFF">
    <path d="M11.2173047 11.8899279L16.0166343 11.8899279C15.174201 14.2716943 12.8925854 15.9793531 10.2214274 15.9596447 6.9803347 15.9357131 4.30039503 13.3429194 4.17456966 10.104173 4.03969451 6.63247863 6.82494673 3.76510809 10.2672125 3.76510809 11.8411358 3.76510809 13.2774354 4.36480644 14.3602576 5.34747779 14.6167349 5.5802916 15.0071488 5.58176638 15.2594029 5.34432713L17.0221648 3.68526898C17.2978142 3.4257751 17.2988197 2.98756494 17.0239747 2.7271996 15.3067299 1.10031842 13.0031267.0862745098 10.4628217.0366683426 5.04462161-.0691134573.477569489 4.37325289.439828581 9.79239149.401752496 15.2522205 4.81623213 19.6900955 10.2672125 19.6900955 15.5093107 19.6900955 19.7916637 15.5855874 20.078508 10.415217 20.08615 10.3503938 20.0911777 8.15961119 20.0911777 8.15961119L11.2173047 8.15961119C10.8535708 8.15961119 10.5587493 8.45443271 10.5587493 8.81816658L10.5587493 11.2313725C10.5587493 11.5951064 10.8536379 11.8899279 11.2173047 11.8899279zM28.2233044 8.37874979L28.2233044 6.02091503C28.2233044 5.70216189 27.9649501 5.44380761 27.6461969 5.44380761L25.6616821 5.44380761C25.342929 5.44380761 25.0845747 5.70216189 25.0845747 6.02091503L25.0845747 8.37874979 22.7267399 8.37874979C22.4079868 8.37874979 22.1496325 8.63710407 22.1496325 8.95585721L22.1496325 10.940372C22.1496325 11.2591252 22.4079868 11.5174795 22.7267399 11.5174795L25.0845747 11.5174795 25.0845747 13.8753142C25.0845747 14.1940674 25.342929 14.4524217 25.6616821 14.4524217L27.6461969 14.4524217C27.9649501 14.4524217 28.2233044 14.1940674 28.2233044 13.8753142L28.2233044 11.5174795 30.5811391 11.5174795C30.8998923 11.5174795 31.1582465 11.2591252 31.1582465 10.940372L31.1582465 8.95585721C31.1582465 8.63710407 30.8998923 8.37874979 30.5811391 8.37874979L28.2233044 8.37874979z"/>
  </g>
</svg>
