<svg xmlns="http://www.w3.org/2000/svg" width="20" height="20" viewBox="0 0 20 20">
  <path fill="#FFF" d="M103.190838,0 L86.8091623,0 C85.81,0 85,0.81 85,1.8091623 L85,18.1907853 C85,19.19 85.81,20 86.8091623,20 L103.190785,20 C104.19,20 105,19.19 105,18.1907853 L105,1.8091623 C105,0.81 104.19,0 103.190838,0 Z M91.1888482,17.2693194 C91.1888482,17.5601047 90.9531414,17.7958115 90.662356,17.7958115 L88.4212042,17.7958115 C88.1304188,17.7958115 87.894712,17.5601047 87.894712,17.2693194 L87.894712,7.87450262 C87.894712,7.58371728 88.1304188,7.34801047 88.4212042,7.34801047 L90.662356,7.34801047 C90.9531414,7.34801047 91.1888482,7.58371728 91.1888482,7.87450262 L91.1888482,17.2693194 Z M89.5417801,6.46240838 C88.3659162,6.46240838 87.4126702,5.5091623 87.4126702,4.33329843 C87.4126702,3.15743455 88.3659162,2.20418848 89.5417801,2.20418848 C90.717644,2.20418848 91.6708901,3.15743455 91.6708901,4.33329843 C91.6708901,5.5091623 90.7176963,6.46240838 89.5417801,6.46240838 Z M102.901047,17.3117277 C102.901047,17.5790576 102.684293,17.7958115 102.416963,17.7958115 L100.012042,17.7958115 C99.744712,17.7958115 99.5279581,17.5790576 99.5279581,17.3117277 L99.5279581,12.9050262 C99.5279581,12.247644 99.7207853,10.0243455 97.81,10.0243455 C96.3278534,10.0243455 96.0272251,11.5461257 95.9668586,12.2290576 L95.9668586,17.3117277 C95.9668586,17.5790576 95.7501571,17.7958115 95.4827749,17.7958115 L93.1568063,17.7958115 C92.8894764,17.7958115 92.6727225,17.5790576 92.6727225,17.3117277 L92.6727225,7.83209424 C92.6727225,7.5647644 92.8894764,7.34801047 93.1568063,7.34801047 L95.4827749,7.34801047 C95.7501047,7.34801047 95.9668586,7.5647644 95.9668586,7.83209424 L95.9668586,8.65172775 C96.5164398,7.82696335 97.3331937,7.19036649 99.072199,7.19036649 C102.923089,7.19036649 102.901047,10.7880628 102.901047,12.7648168 L102.901047,17.3117277 Z" transform="translate(-85)"/>
</svg>
