<svg xmlns="http://www.w3.org/2000/svg" width="171" height="68" viewBox="0 0 171 68">
  <path fill="#4E6379" fill-rule="evenodd" d="M228.5,109.1 L234.6,116.6 C231.9,119.4 227.9,121 222.7,121 C212,121 205.3,114.1 205.3,104 L205.3,78.5 L199.2,78.5 L199.2,70 L205.3,70 L205.3,53 L216.4,53 L216.4,70 L230.6,70 L230.6,78.5 L216.5,78.5 L216.5,104 C216.5,109.1 218.9,111.5 223,111.5 C225.2,111.5 226.9,110.9 228.5,109.1 Z M288.9,70 L268,95.1 L288.9,120 L275.4,120 L261.3,103.1 L247.1,120 L233.6,120 L254.5,95 L233.6,70 L246.9,70 L261.2,87 L275.5,70 L288.9,70 Z M319.4,109.1 L325.5,116.6 C322.8,119.4 318.8,121 313.6,121 C302.9,121 296.2,114.1 296.2,104 L296.2,78.5 L290.1,78.5 L290.1,70 L296.2,70 L296.2,53 L307.3,53 L307.3,70 L321.5,70 L321.5,78.5 L307.4,78.5 L307.4,104 C307.4,109.1 309.8,111.5 313.9,111.5 C316.1,111.5 317.8,110.9 319.4,109.1 Z M357.4,69 C363.6,69 366.6,70.2 369.5,72.7 L364.2,80.6 C363.2,80 360.8,78.8 356.8,78.8 C350,78.8 343.6,84.6 343.6,93.2 L343.6,120 L332.5,120 L332.5,70 L342.6,70 L343.2,77 C346.8,72.2 351.9,69 357.4,69 Z" transform="translate(-199 -53)"/>
</svg>
