<svg xmlns="http://www.w3.org/2000/svg" width="20" height="20" viewBox="0 0 20 20">
  <g fill="#1A1A1A" transform="translate(1 1)">
    <path d="M6 17.5C6.27614237 17.5 6.5 17.7238576 6.5 18 6.5 18.2761424 6.27614237 18.5 6 18.5L2 18.5C.619288125 18.5-.5 17.3807119-.5 16L-.5 2C-.5.619288125.619288125-.5 2-.5L6-.5C6.27614237-.5 6.5-.276142375 6.5 0 6.5.276142375 6.27614237.5 6 .5L2 .5C1.17157288.5.5 1.17157288.5 2L.5 16C.5 16.8284271 1.17157288 17.5 2 17.5L6 17.5zM12.6464466 4.35355339C12.4511845 4.15829124 12.4511845 3.84170876 12.6464466 3.64644661 12.8417088 3.45118446 13.1582912 3.45118446 13.3535534 3.64644661L18.3535534 8.64644661C18.5488155 8.84170876 18.5488155 9.15829124 18.3535534 9.35355339L13.3535534 14.3535534C13.1582912 14.5488155 12.8417088 14.5488155 12.6464466 14.3535534 12.4511845 14.1582912 12.4511845 13.8417088 12.6464466 13.6464466L17.2928932 9 12.6464466 4.35355339z"/>
    <path d="M18,8.5 C18.2761424,8.5 18.5,8.72385763 18.5,9 C18.5,9.27614237 18.2761424,9.5 18,9.5 L6,9.5 C5.72385763,9.5 5.5,9.27614237 5.5,9 C5.5,8.72385763 5.72385763,8.5 6,8.5 L18,8.5 Z"/>
  </g>
</svg>
