<svg xmlns="http://www.w3.org/2000/svg" width="32" height="38" viewBox="0 0 32 38">
  <g fill="#676767">
    <path d="M17.0735951,33.5205046 C18.6890681,32.2341094 20.3050592,30.7797174 21.8089082,29.1923212 C26.0100525,24.75778 28.5,20.1928762 28.5,15.8333334 C28.4999999,8.83772664 22.8289401,3.16666688 15.8333333,3.16666688 C8.83772658,3.16666688 3.16666677,8.83772664 3.16666667,15.8333334 C3.16666667,20.1928762 5.65661418,24.75778 9.85775842,29.1923212 C11.3616075,30.7797174 12.9775985,32.2341094 14.5930716,33.5205046 C15.0340209,33.8716309 15.4496734,34.1898832 15.8333333,34.4733101 C16.2169933,34.1898832 16.6326458,33.8716309 17.0735951,33.5205046 Z M24.1077584,31.3701792 C22.49442,33.0731475 20.7705673,34.624615 19.0461966,35.997725 C18.4417144,36.4790719 17.879275,36.9045069 17.3726647,37.2703921 C17.0639381,37.4933613 16.8389802,37.6491655 16.7116086,37.7340798 C16.1797679,38.0886403 15.4868988,38.0886403 14.955058,37.7340798 C14.8276865,37.6491655 14.6027286,37.4933613 14.2940019,37.2703921 C13.7873917,36.9045069 13.2249523,36.4790719 12.6204701,35.997725 C10.8960994,34.624615 9.17224667,33.0731475 7.55890825,31.3701792 C2.85380249,26.4036786 -3.51570624e-16,21.1717074 0,15.8333334 C1.30303331e-07,7.0888249 7.08882488,2.12341547e-07 15.8333333,2.12341547e-07 C24.5778418,2.12341547e-07 31.6666665,7.0888249 31.6666667,15.8333334 C31.6666667,21.1717074 28.8128642,26.4036786 24.1077584,31.3701792 Z"/>
    <path d="M15.8333333,22.1666667 C12.3355299,22.1666667 9.5,19.3311367 9.5,15.8333333 C9.5,12.3355299 12.3355299,9.5 15.8333333,9.5 C19.3311367,9.5 22.1666667,12.3355299 22.1666667,15.8333333 C22.1666667,19.3311367 19.3311367,22.1666667 15.8333333,22.1666667 Z M15.8333333,19 C17.582235,19 19,17.582235 19,15.8333333 C19,14.0844316 17.582235,12.6666667 15.8333333,12.6666667 C14.0844316,12.6666667 12.6666667,14.0844316 12.6666667,15.8333333 C12.6666667,17.582235 14.0844316,19 15.8333333,19 Z"/>
  </g>
</svg>
