<svg xmlns="http://www.w3.org/2000/svg" width="20" height="22" viewBox="0 0 20 22">
  <g fill="#1A1A1A" transform="translate(1 1)">
    <path d="M15 6.5C13.0670034 6.5 11.5 4.93299662 11.5 3 11.5 1.06700338 13.0670034-.5 15-.5 16.9329966-.5 18.5 1.06700338 18.5 3 18.5 4.93299662 16.9329966 6.5 15 6.5zM15 5.5C16.3807119 5.5 17.5 4.38071187 17.5 3 17.5 1.61928813 16.3807119.5 15 .5 13.6192881.5 12.5 1.61928813 12.5 3 12.5 4.38071187 13.6192881 5.5 15 5.5zM3 13.5C1.06700338 13.5-.5 11.9329966-.5 10-.5 8.06700338 1.06700338 6.5 3 6.5 4.93299662 6.5 6.5 8.06700338 6.5 10 6.5 11.9329966 4.93299662 13.5 3 13.5zM3 12.5C4.38071187 12.5 5.5 11.3807119 5.5 10 5.5 8.61928813 4.38071187 7.5 3 7.5 1.61928813 7.5.5 8.61928813.5 10 .5 11.3807119 1.61928813 12.5 3 12.5zM15 20.5C13.0670034 20.5 11.5 18.9329966 11.5 17 11.5 15.0670034 13.0670034 13.5 15 13.5 16.9329966 13.5 18.5 15.0670034 18.5 17 18.5 18.9329966 16.9329966 20.5 15 20.5zM15 19.5C16.3807119 19.5 17.5 18.3807119 17.5 17 17.5 15.6192881 16.3807119 14.5 15 14.5 13.6192881 14.5 12.5 15.6192881 12.5 17 12.5 18.3807119 13.6192881 19.5 15 19.5z"/>
    <path d="M5.33826115 11.9420041C5.09967187 11.8029726 5.01896436 11.4968504 5.15799589 11.2582611 5.29702742 11.0196719 5.60314957 10.9389644 5.84173885 11.0779959L12.6717389 15.0579959C12.9103281 15.1970274 12.9910356 15.5031496 12.8520041 15.7417389 12.7129726 15.9803281 12.4068504 16.0610356 12.1682611 15.9220041L5.33826115 11.9420041zM12.1579858 4.07815649C12.3964863 3.93897286 12.7026599 4.01948517 12.8418435 4.25798575 12.9810271 4.49648634 12.9005148 4.80265989 12.6620142 4.94184351L5.84201425 8.92184351C5.60351366 9.06102714 5.29734011 8.98051483 5.15815649 8.74201425 5.01897286 8.50351366 5.09948517 8.19734011 5.33798575 8.05815649L12.1579858 4.07815649z"/>
  </g>
</svg>
