<svg xmlns="http://www.w3.org/2000/svg" width="23" height="20" viewBox="0 0 23 20">
  <path fill="#FFF" d="M297.986569,11.747015 C297.62308,11.2446107 297.454622,10.6310054 297.455307,10.0108858 C297.455364,10.0072858 297.455364,10.0036857 297.455364,10.0000286 C297.455364,4.47718123 292.978183,0 287.455336,0 C286.247154,0 285.089487,0.215030415 284.017478,0.608005211 C283.43753,0.820578462 282.80221,0.861435955 282.207634,0.693948805 C281.682429,0.54600468 281.121396,0.483604145 280.540191,0.523604488 C278.098741,0.691605928 276.133239,2.69248022 276.006723,5.13644403 C275.946323,6.30296831 276.296155,7.38509187 276.924046,8.25298503 C277.287534,8.75538933 277.455993,9.36899459 277.45525,9.98911419 C277.45525,9.99271422 277.45525,9.99631425 277.45525,9.99997143 C277.45525,15.5228188 281.932374,20 287.455279,20 C288.663518,20 289.821185,19.7849696 290.893137,19.3919948 C291.473085,19.1794215 292.108404,19.138564 292.702981,19.3060512 C293.228185,19.4539953 293.789162,19.5163959 294.370424,19.4763955 C296.811873,19.3083941 298.777319,17.3075769 298.903891,14.8636703 C298.964292,13.697146 298.61446,12.6149653 297.986569,11.747015 Z M287.821396,8.2072132 C289.837756,8.68670303 292.884754,9.41128067 292.884754,12.7675952 C292.884754,14.4209808 292.070518,15.6822487 290.591934,16.318997 C289.536839,16.7734009 288.342715,16.8347157 287.313735,16.8347157 C284.15165,16.8347157 282.15449,14.3759518 282.071004,14.2712652 C281.553171,13.6217739 281.659743,12.6753658 282.309292,12.1575328 C282.958669,11.6394712 283.905077,11.7463293 284.423024,12.3956491 C284.427653,12.401192 285.622006,13.7728609 287.313735,13.8265185 C289.350895,13.8911476 289.816328,13.2850282 289.8765,12.7676523 C289.950043,12.1357612 289.387924,11.6718715 287.125276,11.1338097 C285.207431,10.6776915 282.308835,9.98842847 282.308835,6.89737341 C282.308835,5.93479373 282.700324,2.79408109 287.738195,2.79408109 C290.919251,2.79408109 292.796925,5.29861685 292.875325,5.40524633 C293.367329,6.07456635 293.223671,7.01606014 292.554351,7.50800721 C291.887945,7.99783998 290.952394,7.85766735 290.458505,7.19646168 C290.423076,7.15091844 289.348266,5.95513676 287.738195,5.80227831 C286.519899,5.68656303 285.317032,6.12588108 285.317032,6.77485807 C285.317032,7.46246396 285.662463,7.69378023 287.821396,8.2072132 Z" transform="translate(-276)"/>
</svg>
