<svg xmlns="http://www.w3.org/2000/svg" width="24" height="20" viewBox="0 0 24 20">
  <path fill="#FFF" d="M63.6627384,2.32662022 C63.1284926,2.56350884 62.573904,2.7503935 62.0048351,2.88569142 C62.6318837,2.28986467 63.1033426,1.54461226 63.3693224,0.712776216 C63.4452412,0.475301387 63.187293,0.269951022 62.9728443,0.397100591 C62.1811779,0.866657092 61.3284247,1.2189124 60.4382103,1.444194 C60.3865621,1.45726655 60.3332723,1.46389075 60.2798067,1.46389075 C60.1176511,1.46389075 59.9600096,1.40368669 59.8360186,1.29441662 C58.8888798,0.459708125 57.6707195,0 56.4060113,0 C55.8587508,0 55.3062141,0.0852939711 54.7637021,0.253537062 C53.082818,0.774856158 51.7858663,2.16130819 51.378953,3.87187732 C51.2262946,4.51348729 51.1849643,5.15568348 51.2560173,5.78058639 C51.2641661,5.85239746 51.2302225,5.90251866 51.2092935,5.9260258 C51.1725359,5.96723656 51.1204186,5.99086094 51.0663081,5.99086094 C51.0602698,5.99086094 51.0540556,5.99056784 51.0479,5.98998162 C47.3685037,5.6481609 44.0505866,3.87562908 41.7053101,0.998965334 C41.5857159,0.852236256 41.3563765,0.87023299 41.261053,1.03372776 C40.8017879,1.82159784 40.5590822,2.72272425 40.5590822,3.6396784 C40.5590822,5.04494787 41.1236955,6.36926134 42.1044262,7.3346953 C41.6920023,7.236915 41.2928275,7.08291688 40.922027,6.8769803 C40.7426357,6.77732411 40.5219142,6.90541162 40.5193933,7.11058612 C40.4937157,9.19820736 41.7160384,11.0557987 43.5471187,11.8922658 C43.5102438,11.8931451 43.473369,11.8935555 43.4364355,11.8935555 C43.1461851,11.8935555 42.8523001,11.8655345 42.5630464,11.8102546 C42.3610261,11.7716818 42.1913079,11.9633148 42.2540362,12.1591685 C42.8483722,14.0145908 44.4460095,15.3822254 46.3578745,15.6927424 C44.7711414,16.7578325 42.9233531,17.3196589 41.0001735,17.3196589 L40.4006199,17.3193072 C40.2158938,17.3193072 40.0596593,17.4397153 40.0125838,17.6186275 C39.9662117,17.7948431 40.0516277,17.9807312 40.209152,18.0723563 C42.3762685,19.333476 44.8481741,20 47.3587134,20 C49.556256,20 51.6118685,19.5639163 53.4685092,18.703942 C55.1705568,17.9155443 56.6746291,16.7885501 57.938927,15.3542631 C59.1166949,14.0181667 60.0376872,12.4757821 60.6762261,10.7700199 C61.2849252,9.14404129 61.606657,7.40908571 61.606657,5.75268266 L61.606657,5.67377841 C61.6065983,5.40781363 61.726896,5.15755936 61.936772,4.9872059 C62.733187,4.34061312 63.4267159,3.57947434 63.9980124,2.72495186 C64.1488535,2.49931853 63.9109549,2.21652944 63.6627384,2.32662022 Z" transform="translate(-40)"/>
</svg>
