<svg xmlns="http://www.w3.org/2000/svg" width="38" height="36" viewBox="0 0 38 36">
  <g fill="#676767" transform="translate(0 -1)">
    <path d="M12.7164931,30.2951337 L2.36888665,36.2080516 C1.31334677,36.8112173 0,36.0490526 0,34.8333333 L0,9.5 C0,8.93180999 0.304452935,8.40718288 0.797780014,8.12528169 L11.8811133,1.79194836 C12.3407548,1.5292961 12.9012518,1.51373874 13.3747549,1.75049028 L25.2835069,7.70486631 L35.6311133,1.79194836 C36.6866532,1.18878271 38,1.95094744 38,3.16666667 L38,28.5 C38,29.06819 37.6955471,29.5928171 37.20222,29.8747183 L26.1188867,36.2080516 C25.6592452,36.4707039 25.0987482,36.4862613 24.6252451,36.2495097 L12.7164931,30.2951337 Z M3.16666667,10.418844 L3.16666667,32.1049655 L11.8811133,27.1252817 C12.3407548,26.8626294 12.9012518,26.8470721 13.3747549,27.0838236 L25.2835069,33.0381996 L34.8333333,27.581156 L34.8333333,5.89503449 L26.1188867,10.8747183 C25.6592452,11.1373706 25.0987482,11.1529279 24.6252451,10.9161764 L12.7164931,4.96180035 L3.16666667,10.418844 Z"/>
    <path d="M11.0833333 3.16666667C11.0833333 2.29221581 11.7922158 1.58333333 12.6666667 1.58333333 13.5411175 1.58333333 14.25 2.29221581 14.25 3.16666667L14.25 28.5C14.25 29.3744509 13.5411175 30.0833333 12.6666667 30.0833333 11.7922158 30.0833333 11.0833333 29.3744509 11.0833333 28.5L11.0833333 3.16666667zM23.75 9.5C23.75 8.62554915 24.4588825 7.91666667 25.3333333 7.91666667 26.2077842 7.91666667 26.9166667 8.62554915 26.9166667 9.5L26.9166667 34.8333333C26.9166667 35.7077842 26.2077842 36.4166667 25.3333333 36.4166667 24.4588825 36.4166667 23.75 35.7077842 23.75 34.8333333L23.75 9.5z"/>
  </g>
</svg>
