<svg xmlns="http://www.w3.org/2000/svg" width="28" height="23" viewBox="0 0 28 23">
  <g fill="#676767">
    <path d="M20.7 21.85C20.7 22.4851275 20.1851275 23 19.55 23 18.9148725 23 18.4 22.4851275 18.4 21.85L18.4 19.55C18.4 17.6446176 16.8553824 16.1 14.95 16.1L5.75 16.1C3.84461761 16.1 2.3 17.6446176 2.3 19.55L2.3 21.85C2.3 22.4851275 1.78512746 23 1.15 23 .514872538 23 0 22.4851275 0 21.85L0 19.55C3.83026943e-16 16.3743627 2.57436269 13.8 5.75 13.8L14.95 13.8C18.1256373 13.8 20.7 16.3743627 20.7 19.55L20.7 21.85zM10.35 11.5C7.17436269 11.5 4.6 8.92563731 4.6 5.75 4.6 2.57436269 7.17436269 0 10.35 0 13.5256373 0 16.1 2.57436269 16.1 5.75 16.1 8.92563731 13.5256373 11.5 10.35 11.5zM10.35 9.2C12.2553824 9.2 13.8 7.65538239 13.8 5.75 13.8 3.84461761 12.2553824 2.3 10.35 2.3 8.44461761 2.3 6.9 3.84461761 6.9 5.75 6.9 7.65538239 8.44461761 9.2 10.35 9.2zM27.6 21.85C27.6 22.4851275 27.0851275 23 26.45 23 25.8148725 23 25.3 22.4851275 25.3 21.85L25.3000003 19.5508578C25.2988276 17.9786218 24.2348118 16.6060415 22.7125003 16.2129828 22.0975408 16.0542011 21.7277355 15.4269599 21.8865172 14.8120003 22.0452989 14.1970408 22.6725401 13.8272355 23.2874997 13.9860172 25.8246854 14.641115 27.5980451 16.928749 27.6 19.55L27.6 21.85zM18.1147549 2.4135625C17.4994752 2.256026 17.128401 1.62953467 17.2859375 1.01425494 17.443474.398975208 18.0699653.0279010016 18.6852451.1854375 21.2294976.83686907 23.0090197 3.12942477 23.0090197 5.75575 23.0090197 8.38207523 21.2294976 10.6746309 18.6852451 11.3260625 18.0699653 11.483599 17.443474 11.1125248 17.2859375 10.4972451 17.128401 9.88196533 17.4994752 9.255474 18.1147549 9.0979375 19.6413065 8.70707856 20.7090197 7.33154514 20.7090197 5.75575 20.7090197 4.17995486 19.6413065 2.80442144 18.1147549 2.4135625z"/>
  </g>
</svg>
