<svg xmlns="http://www.w3.org/2000/svg" width="38" height="35" viewBox="0 0 38 35">
  <g fill="#4A4A4A">
    <path d="M17.2727273,18.2845402 L35.051361,0.505906469 C35.725903,-0.16863549 36.8195516,-0.16863549 37.4940935,0.505906469 C38.1686355,1.18044843 38.1686355,2.27409703 37.4940935,2.94863899 L18.4940935,21.948639 C17.8195516,22.6231809 16.725903,22.6231809 16.051361,21.948639 L10.8695428,16.7668208 C10.1950009,16.0922788 10.1950009,14.9986302 10.8695428,14.3240883 C11.5440848,13.6495463 12.6377334,13.6495463 13.3122753,14.3240883 L17.2727273,18.2845402 Z"/>
    <path d="M31.0909091,17.2727273 C31.0909091,16.3187809 31.8642354,15.5454545 32.8181818,15.5454545 C33.7721282,15.5454545 34.5454545,16.3187809 34.5454545,17.2727273 L34.5454545,29.3636364 C34.5454545,32.2254755 32.2254755,34.5454545 29.3636364,34.5454545 L5.18181818,34.5454545 C2.31997902,34.5454545 0,32.2254755 0,29.3636364 L0,5.18181818 C0,2.31997902 2.31997902,0 5.18181818,0 L24.1818182,0 C25.1357646,0 25.9090909,0.773326341 25.9090909,1.72727273 C25.9090909,2.68121911 25.1357646,3.45454545 24.1818182,3.45454545 L5.18181818,3.45454545 C4.2278718,3.45454545 3.45454545,4.2278718 3.45454545,5.18181818 L3.45454545,29.3636364 C3.45454545,30.3175827 4.2278718,31.0909091 5.18181818,31.0909091 L29.3636364,31.0909091 C30.3175827,31.0909091 31.0909091,30.3175827 31.0909091,29.3636364 L31.0909091,17.2727273 Z"/>
  </g>
</svg>
