<svg xmlns="http://www.w3.org/2000/svg" width="31" height="19" viewBox="0 0 31 19">
  <g fill="#FFF">
    <path d="M13.225914 8.02024468C13.7578395 7.19229093 14.0615768 6.20452489 14.0440135 5.14550025 13.9969547 2.31158036 11.6385166.0595274007 8.80412746.0595274007L.890938256.0595274007C.520299744.0595274007.21978022.360046925.21978022.730685437L.21978022 18.13273C.21978022 18.5033685.520299744 18.8038881.890938256 18.8038881L9.73028801 18.8038881C13.0110656 18.8038881 15.7287462 16.174359 15.7421533 12.8935814 15.7503986 10.8829227 14.7533147 9.10031842 13.225914 8.02024468zM3.69134047 3.53108765L8.87169911 3.53108765C9.80985899 3.53108765 10.5731906 4.29435227 10.5731906 5.23257919 10.5731906 6.17073906 9.80992602 6.93407072 8.87169911 6.93407072L3.69134047 6.93407072 3.69134047 3.53108765zM9.80737868 15.3323278L3.69134047 15.3323278 3.69134047 10.405631 8.87169911 10.405631 9.80731164 10.405631C11.1655821 10.405631 12.2706601 11.5107089 12.2706601 12.8689794 12.2706601 14.2272499 11.1656492 15.3323278 9.80737868 15.3323278zM30.9516723 11.6595274C30.9516723 7.60744093 27.7579736 4.31091001 23.8323158 4.31091001 19.906658 4.31091001 16.7129594 7.60750796 16.7129594 11.6595274 16.7129594 15.7115468 19.9067251 19.0082118 23.8323158 19.0082118 26.2143504 19.0082118 28.4277239 17.7870957 29.7531471 15.7416457 29.9183892 15.4866432 30.0684814 15.2201776 30.2016807 14.9455338 30.2983457 14.7461706 30.1516723 14.5141612 29.9300534 14.5136249L26.4304053 14.5049103C26.3529795 14.5047092 26.2795758 14.5363499 26.2240705 14.5903134 25.5632359 15.2328473 24.7530465 15.5365845 23.8323158 15.5365845 22.0930834 15.5365845 20.6351313 14.2357634 20.2722019 12.5016256L30.2549738 12.5016256C30.6397568 12.5016256 30.9516723 12.1897101 30.9516723 11.8049271L30.9516723 11.6595274zM23.8323158 7.78247025C25.1061218 7.78247025 26.22883 8.48050947 26.8814863 9.53510977L20.7832124 9.53510977C21.4358017 8.48050947 22.5585769 7.78247025 23.8323158 7.78247025zM26.7905863 3.44829898L20.4760564 3.44829898C20.181436 3.44829898 19.942589 3.20945199 19.942589 2.91483157L19.942589 1.33071895C19.942589 1.03609854 20.181436.79725155 20.4760564.79725155L26.7905863.79725155C27.0852067.79725155 27.3240537 1.03609854 27.3240537 1.33071895L27.3240537 2.91483157C27.3240537 3.20951902 27.0852067 3.44829898 26.7905863 3.44829898z"/>
  </g>
</svg>
