<svg xmlns="http://www.w3.org/2000/svg" width="35" height="38" viewBox="0 0 35 38">
  <g fill="#676767">
    <path d="M5.18181818,6.90909091 C4.2278718,6.90909091 3.45454545,7.68241725 3.45454545,8.63636364 L3.45454545,32.8181818 C3.45454545,33.7721282 4.2278718,34.5454545 5.18181818,34.5454545 L29.3636364,34.5454545 C30.3175827,34.5454545 31.0909091,33.7721282 31.0909091,32.8181818 L31.0909091,8.63636364 C31.0909091,7.68241725 30.3175827,6.90909091 29.3636364,6.90909091 L5.18181818,6.90909091 Z M5.18181818,3.45454545 L29.3636364,3.45454545 C32.2254755,3.45454545 34.5454545,5.77452448 34.5454545,8.63636364 L34.5454545,32.8181818 C34.5454545,35.680021 32.2254755,38 29.3636364,38 L5.18181818,38 C2.31997902,38 3.8353159e-16,35.680021 0,32.8181818 L0,8.63636364 C-3.8353159e-16,5.77452448 2.31997902,3.45454545 5.18181818,3.45454545 Z"/>
    <path d="M22.4545455 1.72727273C22.4545455.773326341 23.2278718 0 24.1818182 0 25.1357646 0 25.9090909.773326341 25.9090909 1.72727273L25.9090909 8.63636364C25.9090909 9.59031002 25.1357646 10.3636364 24.1818182 10.3636364 23.2278718 10.3636364 22.4545455 9.59031002 22.4545455 8.63636364L22.4545455 1.72727273zM8.63636364 1.72727273C8.63636364.773326341 9.40968998 0 10.3636364 0 11.3175827 0 12.0909091.773326341 12.0909091 1.72727273L12.0909091 8.63636364C12.0909091 9.59031002 11.3175827 10.3636364 10.3636364 10.3636364 9.40968998 10.3636364 8.63636364 9.59031002 8.63636364 8.63636364L8.63636364 1.72727273zM1.72727273 17.2727273C.773326341 17.2727273 0 16.4994009 0 15.5454545 0 14.5915082.773326341 13.8181818 1.72727273 13.8181818L32.8181818 13.8181818C33.7721282 13.8181818 34.5454545 14.5915082 34.5454545 15.5454545 34.5454545 16.4994009 33.7721282 17.2727273 32.8181818 17.2727273L1.72727273 17.2727273z"/>
  </g>
</svg>
