<svg xmlns="http://www.w3.org/2000/svg" width="17" height="19" viewBox="0 0 17 19">
  <path fill="#AC0015" d="M12.4551282,3.43589744 L16.1057692,3.43589744 C16.4615681,3.43589744 16.75,3.72432938 16.75,4.08012821 C16.75,4.43592703 16.4615681,4.72435897 16.1057692,4.72435897 L15.0320513,4.72435897 L15.0320513,16.1057692 C15.0320513,17.4103649 13.9744675,18.4679487 12.6698718,18.4679487 L4.08012821,18.4679487 C2.7755325,18.4679487 1.71794872,17.4103649 1.71794872,16.1057692 L1.71794872,4.72435897 L0.644230769,4.72435897 C0.28843194,4.72435897 0,4.43592703 0,4.08012821 C0,3.72432938 0.28843194,3.43589744 0.644230769,3.43589744 L4.29487179,3.43589744 L4.29487179,2.36217949 C4.29487179,1.05758378 5.35245557,0 6.65705128,0 L10.0929487,0 C11.3975444,0 12.4551282,1.05758378 12.4551282,2.36217949 L12.4551282,3.43589744 Z M11.1666667,3.43589744 L11.1666667,2.36217949 C11.1666667,1.76918144 10.6859468,1.28846154 10.0929487,1.28846154 L6.65705128,1.28846154 C6.06405323,1.28846154 5.58333333,1.76918144 5.58333333,2.36217949 L5.58333333,3.43589744 L11.1666667,3.43589744 Z M13.7435897,4.72435897 L3.00641026,4.72435897 L3.00641026,16.1057692 C3.00641026,16.6987673 3.48713016,17.1794872 4.08012821,17.1794872 L12.6698718,17.1794872 C13.2628698,17.1794872 13.7435897,16.6987673 13.7435897,16.1057692 L13.7435897,4.72435897 Z"/>
</svg>
