<svg xmlns="http://www.w3.org/2000/svg" width="22" height="25" viewBox="0 0 22 25">
  <g fill="#676767" fill-rule="evenodd">
    <path fill-rule="nonzero" d="M2.67857143,5.35714286 C2.18546004,5.35714286 1.78571429,5.75688862 1.78571429,6.25 L1.78571429,22.3214286 C1.78571429,22.81454 2.18546004,23.2142857 2.67857143,23.2142857 L18.75,23.2142857 C19.2431114,23.2142857 19.6428571,22.81454 19.6428571,22.3214286 L19.6428571,6.25 C19.6428571,5.75688862 19.2431114,5.35714286 18.75,5.35714286 L2.67857143,5.35714286 Z M2.67857143,3.57142857 L18.75,3.57142857 C20.2293342,3.57142857 21.4285714,4.77066585 21.4285714,6.25 L21.4285714,22.3214286 C21.4285714,23.8007627 20.2293342,25 18.75,25 L2.67857143,25 C1.19923728,25 2.97381167e-16,23.8007627 0,22.3214286 L0,6.25 C-1.48690584e-16,4.77066585 1.19923728,3.57142857 2.67857143,3.57142857 Z"/>
    <rect width="1.786" height="1.786" x="4.464" y="12.5"/>
    <rect width="1.786" height="1.786" x="4.464" y="16.071"/>
    <rect width="1.786" height="1.786" x="4.464" y="19.643"/>
    <rect width="1.786" height="1.786" x="8.036" y="12.5"/>
    <rect width="1.786" height="1.786" x="8.036" y="16.071"/>
    <rect width="1.786" height="1.786" x="8.036" y="19.643"/>
    <rect width="1.786" height="1.786" x="11.607" y="12.5"/>
    <rect width="1.786" height="1.786" x="11.607" y="16.071"/>
    <rect width="1.786" height="1.786" x="11.607" y="19.643"/>
    <rect width="1.786" height="1.786" x="15.179" y="12.5"/>
    <rect width="1.786" height="1.786" x="15.179" y="16.071"/>
    <rect width="1.786" height="1.786" x="15.179" y="19.643"/>
    <path fill-rule="nonzero" d="M19.6428571,8.92857143 L19.6428571,6.25 C19.6428571,5.75688862 19.2431114,5.35714286 18.75,5.35714286 L2.67857143,5.35714286 C2.18546004,5.35714286 1.78571429,5.75688862 1.78571429,6.25 L1.78571429,8.92857143 L19.6428571,8.92857143 Z M2.67857143,3.57142857 L18.75,3.57142857 C20.2293342,3.57142857 21.4285714,4.77066585 21.4285714,6.25 L21.4285714,10.7142857 L0,10.7142857 L0,6.25 C-1.98254112e-16,4.77066585 1.19923728,3.57142857 2.67857143,3.57142857 Z"/>
    <path fill-rule="nonzero" d="M6.69642857 1.33928571L6.69642857 4.46428571 7.14285714 4.01785714 6.25 4.01785714 6.69642857 4.46428571 6.69642857 1.33928571zM6.69642857.446428571C7.18953996.446428571 7.58928571.846174331 7.58928571 1.33928571L7.58928571 4.91071429 5.80357143 4.91071429 5.80357143 1.33928571C5.80357143.846174331 6.20331719.446428571 6.69642857.446428571zM14.7321429 1.33928571L14.7321429 4.46428571 15.1785714 4.01785714 14.2857143 4.01785714 14.7321429 4.46428571 14.7321429 1.33928571zM14.7321429.446428571C15.2252542.446428571 15.625.846174331 15.625 1.33928571L15.625 4.91071429 13.8392857 4.91071429 13.8392857 1.33928571C13.8392857.846174331 14.2390315.446428571 14.7321429.446428571z"/>
  </g>
</svg>
