<svg xmlns="http://www.w3.org/2000/svg" width="28" height="23" viewBox="0 0 28 23">
  <g fill="#676767">
    <path d="M2.77777778,4.85185185 C2.26640301,4.85185185 1.85185185,5.26640301 1.85185185,5.77777778 L1.85185185,20.0781893 C1.85185185,20.5895641 2.26640301,21.0041152 2.77777778,21.0041152 L24.7942387,21.0041152 C25.3056135,21.0041152 25.7201646,20.5895641 25.7201646,20.0781893 L25.7201646,5.77777778 C25.7201646,5.26640301 25.3056135,4.85185185 24.7942387,4.85185185 L2.77777778,4.85185185 Z M2.77777778,3 L24.7942387,3 C26.328363,3 27.5720165,4.24365347 27.5720165,5.77777778 L27.5720165,20.0781893 C27.5720165,21.6123136 26.328363,22.8559671 24.7942387,22.8559671 L2.77777778,22.8559671 C1.24365347,22.8559671 2.87835599e-15,21.6123136 0,20.0781893 L0,5.77777778 C-2.05596856e-16,4.24365347 1.24365347,3 2.77777778,3 Z"/>
    <path d="M18.2839506,4.48148148 L16.8677548,4.48148148 L16.8677548,2.41857731 C16.8677548,1.7899922 16.3041526,1.28042328 15.608914,1.28042328 L11.6750366,1.28042328 C10.9797981,1.28042328 10.4161959,1.7899922 10.4161959,2.41857731 L10.4161959,4.48148148 L9,4.48148148 L9,2.41857731 C9,1.08283394 10.1976547,0 11.6750366,0 L15.608914,0 C17.0862959,0 18.2839506,1.08283394 18.2839506,2.41857731 L18.2839506,4.48148148 Z"/>
  </g>
</svg>
