<svg xmlns="http://www.w3.org/2000/svg" width="38" height="38" viewBox="0 0 38 38">
  <g fill="#676767">
    <path d="M28.5 20.9C28.5 19.850659 29.350659 19 30.4 19 31.449341 19 32.3 19.850659 32.3 20.9L32.3 32.3C32.3 35.4480231 29.7480231 38 26.6 38L5.7 38C2.55197693 38 0 35.4480231 0 32.3L0 11.4C0 8.25197693 2.55197693 5.7 5.7 5.7L17.1 5.7C18.149341 5.7 19 6.55065898 19 7.6 19 8.64934102 18.149341 9.5 17.1 9.5L5.7 9.5C4.65065898 9.5 3.8 10.350659 3.8 11.4L3.8 32.3C3.8 33.349341 4.65065898 34.2 5.7 34.2L26.6 34.2C27.649341 34.2 28.5 33.349341 28.5 32.3L28.5 20.9zM34.2 3.8L24.7 3.8C23.650659 3.8 22.8 2.94934102 22.8 1.9 22.8.850658975 23.650659 0 24.7 0L36.1 0C37.149341 0 38 .850658975 38 1.9L38 13.3C38 14.349341 37.149341 15.2 36.1 15.2 35.050659 15.2 34.2 14.349341 34.2 13.3L34.2 3.8z"/>
    <path d="M16.5435029,24.1435029 C15.8015067,24.885499 14.5984933,24.885499 13.8564971,24.1435029 C13.114501,23.4015067 13.114501,22.1984933 13.8564971,21.4564971 L34.7564971,0.556497116 C35.4984933,-0.185499039 36.7015067,-0.185499039 37.4435029,0.556497116 C38.185499,1.29849327 38.185499,2.50150673 37.4435029,3.24350288 L16.5435029,24.1435029 Z"/>
  </g>
</svg>
