<svg xmlns="http://www.w3.org/2000/svg" width="25" height="20" viewBox="0 0 25 20">
  <g fill="none">
    <path fill="#FFF" d="M23.6071748,19.9509704 L16.3688948,16.4713049 L16.314371,0.697521648 C16.3131169,0.329292326 16.6975302,0.0866527322 17.0293904,0.246222753 L23.891618,3.54607345 C24.064386,3.62914303 24.1742695,3.80394148 24.1742695,3.99564049 L24.1742695,19.5943864 C24.1742098,19.8858764 23.8698204,20.0772768 23.6071748,19.9509704 Z"/>
    <path fill="#F1F1F1" d="M16.3688948,16.4713049 L8.53491447,12.704688 L16.0767479,0.28772768 C16.2099817,0.0683786205 16.4879751,-0.0140937593 16.719268,0.097103613 L23.6774048,3.44311735 C23.9433946,3.57103613 24.0407968,3.90062705 23.8870196,4.15252314 L16.3688948,16.4713049 Z"/>
    <path fill="#DBDBDB" d="M16.3688948,16.4713049 L8.53491447,12.704688 L1.35432325,1.01176471 C1.15426353,0.68599582 1.50236744,0.300268737 1.8468882,0.465930128 L8.53491447,3.68199463 L16.3688948,16.4713049 Z"/>
    <path fill="#B8B8B8" d="M7.96781982,19.9509107 L0.896455232,16.5504927 C0.759399394,16.4845626 0.672268908,16.345954 0.672268908,16.1939086 L0.672268908,0.510480741 C0.672268908,0.228247238 0.967103186,0.0428187519 1.22150749,0.165183637 L8.53491447,3.68199463 L8.53491447,19.5943267 C8.53491447,19.8858167 8.23046538,20.0772171 7.96781982,19.9509107 Z"/>
  </g>
</svg>
