<svg xmlns="http://www.w3.org/2000/svg" width="18" height="22" viewBox="0 0 18 22">
  <g fill="#1A1A1A" transform="translate(1 1)">
    <path d="M10,-0.5 C10.1326082,-0.5 10.2597852,-0.44732158 10.3535534,-0.353553391 L16.3535534,5.64644661 C16.4473216,5.7402148 16.5,5.86739176 16.5,6 L16.5,18 C16.5,19.3807119 15.3807119,20.5 14,20.5 L2,20.5 C0.619288125,20.5 -0.5,19.3807119 -0.5,18 L-0.5,2 C-0.5,0.619288125 0.619288125,-0.5 2,-0.5 L10,-0.5 Z M9.79289322,0.5 L2,0.5 C1.17157288,0.5 0.5,1.17157288 0.5,2 L0.5,18 C0.5,18.8284271 1.17157288,19.5 2,19.5 L14,19.5 C14.8284271,19.5 15.5,18.8284271 15.5,18 L15.5,6.20710678 L9.79289322,0.5 Z"/>
    <path d="M10.5 5.5L16 5.5C16.2761424 5.5 16.5 5.72385763 16.5 6 16.5 6.27614237 16.2761424 6.5 16 6.5L10 6.5C9.72385763 6.5 9.5 6.27614237 9.5 6L9.5 0C9.5-.276142375 9.72385763-.5 10-.5 10.2761424-.5 10.5-.276142375 10.5 0L10.5 5.5zM8.5 16C8.5 16.2761424 8.27614237 16.5 8 16.5 7.72385763 16.5 7.5 16.2761424 7.5 16L7.5 10C7.5 9.72385763 7.72385763 9.5 8 9.5 8.27614237 9.5 8.5 9.72385763 8.5 10L8.5 16z"/>
    <path d="M5,13.5 C4.72385763,13.5 4.5,13.2761424 4.5,13 C4.5,12.7238576 4.72385763,12.5 5,12.5 L11,12.5 C11.2761424,12.5 11.5,12.7238576 11.5,13 C11.5,13.2761424 11.2761424,13.5 11,13.5 L5,13.5 Z"/>
  </g>
</svg>
