<svg xmlns="http://www.w3.org/2000/svg" width="16" height="16" viewBox="0 0 16 16">
  <path fill="#1A1A1A" d="M8.5,7.5 L15,7.5 C15.2761424,7.5 15.5,7.72385763 15.5,8 C15.5,8.27614237 15.2761424,8.5 15,8.5 L8.5,8.5 L8.5,15 C8.5,15.2761424 8.27614237,15.5 8,15.5 C7.72385763,15.5 7.5,15.2761424 7.5,15 L7.5,8.5 L1,8.5 C0.723857625,8.5 0.5,8.27614237 0.5,8 C0.5,7.72385763 0.723857625,7.5 1,7.5 L7.5,7.5 L7.5,1 C7.5,0.723857625 7.72385763,0.5 8,0.5 C8.27614237,0.5 8.5,0.723857625 8.5,1 L8.5,7.5 Z"/>
</svg>
