<svg xmlns="http://www.w3.org/2000/svg" width="22" height="22" viewBox="0 0 22 22">
  <g fill="#1A1A1A" transform="translate(1 1)">
    <path d="M10,20.5 C4.20101013,20.5 -0.5,15.7989899 -0.5,10 C-0.5,4.20101013 4.20101013,-0.5 10,-0.5 C15.7989899,-0.5 20.5,4.20101013 20.5,10 C20.5,15.7989899 15.7989899,20.5 10,20.5 Z M10,19.5 C15.2467051,19.5 19.5,15.2467051 19.5,10 C19.5,4.75329488 15.2467051,0.5 10,0.5 C4.75329488,0.5 0.5,4.75329488 0.5,10 C0.5,15.2467051 4.75329488,19.5 10,19.5 Z"/>
    <path d="M14.2236068,11.5527864 C14.470596,11.676281 14.5707082,11.9766175 14.4472136,12.2236068 C14.323719,12.470596 14.0233825,12.5707082 13.7763932,12.4472136 L9.7763932,10.4472136 C9.60700119,10.3625176 9.5,10.189386 9.5,10 L9.5,4 C9.5,3.72385763 9.72385763,3.5 10,3.5 C10.2761424,3.5 10.5,3.72385763 10.5,4 L10.5,9.69098301 L14.2236068,11.5527864 Z"/>
  </g>
</svg>
