<svg xmlns="http://www.w3.org/2000/svg" width="39" height="39" viewBox="0 0 39 39">
  <path fill="#3C3C3C" d="M28.9673605,26.8460401 L38.0606602,35.9393398 C38.6464466,36.5251263 38.6464466,37.4748737 38.0606602,38.0606602 C37.4748737,38.6464466 36.5251263,38.6464466 35.9393398,38.0606602 L26.8460401,28.9673605 C24.0612359,31.2777187 20.4844877,32.6666667 16.5833333,32.6666667 C7.70075361,32.6666667 0.5,25.4659131 0.5,16.5833333 C0.5,7.70075361 7.70075361,0.5 16.5833333,0.5 C25.4659131,0.5 32.6666667,7.70075361 32.6666667,16.5833333 C32.6666667,20.4844877 31.2777187,24.0612359 28.9673605,26.8460401 Z M25.9451391,25.7228277 C28.2477411,23.3645702 29.6666667,20.1396557 29.6666667,16.5833333 C29.6666667,9.35760786 23.8090588,3.5 16.5833333,3.5 C9.35760786,3.5 3.5,9.35760786 3.5,16.5833333 C3.5,23.8090588 9.35760786,29.6666667 16.5833333,29.6666667 C20.1396557,29.6666667 23.3645702,28.2477411 25.7228277,25.9451391 C25.7555557,25.904802 25.7906894,25.865768 25.8282287,25.8282287 C25.865768,25.7906894 25.904802,25.7555557 25.9451391,25.7228277 Z"/>
</svg>
