<svg xmlns="http://www.w3.org/2000/svg" width="18" height="20" viewBox="0 0 18 20">
  <g fill="#1A1A1A" transform="translate(1 1)">
    <path d="M16.5 18C16.5 18.2761424 16.2761424 18.5 16 18.5 15.7238576 18.5 15.5 18.2761424 15.5 18L15.5 16C15.5 14.0670034 13.9329966 12.5 12 12.5L4 12.5C2.06700338 12.5.5 14.0670034.5 16L.5 18C.5 18.2761424.276142375 18.5 0 18.5-.276142375 18.5-.5 18.2761424-.5 18L-.5 16C-.5 13.5147186 1.51471863 11.5 4 11.5L12 11.5C14.4852814 11.5 16.5 13.5147186 16.5 16L16.5 18zM8 8.5C5.51471863 8.5 3.5 6.48528137 3.5 4 3.5 1.51471863 5.51471863-.5 8-.5 10.4852814-.5 12.5 1.51471863 12.5 4 12.5 6.48528137 10.4852814 8.5 8 8.5zM8 7.5C9.93299662 7.5 11.5 5.93299662 11.5 4 11.5 2.06700338 9.93299662.5 8 .5 6.06700338.5 4.5 2.06700338 4.5 4 4.5 5.93299662 6.06700338 7.5 8 7.5z"/>
  </g>
</svg>
