<svg xmlns="http://www.w3.org/2000/svg" width="38" height="32" viewBox="0 0 38 32">
  <g fill="#676767">
    <path d="M28.5 30.0833333C28.5 30.9577842 27.7911175 31.6666667 26.9166667 31.6666667 26.0422158 31.6666667 25.3333333 30.9577842 25.3333333 30.0833333L25.3333333 26.9166667C25.3333333 24.2933141 23.2066859 22.1666667 20.5833333 22.1666667L7.91666667 22.1666667C5.2933141 22.1666667 3.16666667 24.2933141 3.16666667 26.9166667L3.16666667 30.0833333C3.16666667 30.9577842 2.45778419 31.6666667 1.58333333 31.6666667.708882479 31.6666667 0 30.9577842 0 30.0833333L0 26.9166667C5.27355937e-16 22.5444124 3.5444124 19 7.91666667 19L20.5833333 19C24.9555876 19 28.5 22.5444124 28.5 26.9166667L28.5 30.0833333zM14.25 15.8333333C9.87774573 15.8333333 6.33333333 12.2889209 6.33333333 7.91666667 6.33333333 3.5444124 9.87774573 0 14.25 0 18.6222543 0 22.1666667 3.5444124 22.1666667 7.91666667 22.1666667 12.2889209 18.6222543 15.8333333 14.25 15.8333333zM14.25 12.6666667C16.8733526 12.6666667 19 10.5400192 19 7.91666667 19 5.29331411 16.8733526 3.16666667 14.25 3.16666667 11.6266474 3.16666667 9.5 5.29331411 9.5 7.91666667 9.5 10.5400192 11.6266474 12.6666667 14.25 12.6666667zM38 30.0833333C38 30.9577842 37.2911175 31.6666667 36.4166667 31.6666667 35.5422158 31.6666667 34.8333333 30.9577842 34.8333333 30.0833333L34.8333338 26.9178477C34.8317191 24.753175 33.3667698 22.8633904 31.2708338 22.3222227 30.4241503 22.1036102 29.9149982 21.2400172 30.1336106 20.3933338 30.3522231 19.5466503 31.2158161 19.0374982 32.0624996 19.2561106 35.5557263 20.1580568 37.9973085 23.3076978 38 26.9166667L38 30.0833333zM24.9406046 3.32302083C24.0934804 3.10612276 23.5825811 2.24356222 23.7994792 1.39643796 24.0163772.549313692 24.8789378.0384144225 25.726062.2553125 29.2290185 1.15221104 31.6790852 4.30862831 31.6790852 7.92458333 31.6790852 11.5405384 29.2290185 14.6969556 25.726062 15.5938542 24.8789378 15.8107522 24.0163772 15.299853 23.7994792 14.4527287 23.5825811 13.6056044 24.0934804 12.7430439 24.9406046 12.5261458 27.0423785 11.9880067 28.5124185 10.0941563 28.5124185 7.92458333 28.5124185 5.75501032 27.0423785 3.86115996 24.9406046 3.32302083z"/>
  </g>
</svg>
