<svg xmlns="http://www.w3.org/2000/svg" width="30" height="30" viewBox="0 0 30 30">
  <path fill="#202020" d="M16.7159903,15.125 L29.0454951,27.4545049 C29.484835,27.8938447 29.484835,28.6061553 29.0454951,29.0454951 C28.6061553,29.484835 27.8938447,29.484835 27.4545049,29.0454951 L15.125,16.7159903 L2.79549513,29.0454951 C2.3561553,29.484835 1.6438447,29.484835 1.20450487,29.0454951 C0.765165043,28.6061553 0.765165043,27.8938447 1.20450487,27.4545049 L13.5340097,15.125 L1.20450487,2.79549513 C0.765165043,2.3561553 0.765165043,1.6438447 1.20450487,1.20450487 C1.6438447,0.765165043 2.3561553,0.765165043 2.79549513,1.20450487 L15.125,13.5340097 L27.4545049,1.20450487 C27.8938447,0.765165043 28.6061553,0.765165043 29.0454951,1.20450487 C29.484835,1.6438447 29.484835,2.3561553 29.0454951,2.79549513 L16.7159903,15.125 Z"/>
</svg>
